<svg width="40" height="40" viewBox="0 0 40 40" fill="none" xmlns="http://www.w3.org/2000/svg">
<g clip-path="url(#clip0_165_57946)">
<path d="M21.5 16H20V21L24.28 23.54L25 22.33L21.5 20.25V16ZM21 11C18.6131 11 16.3239 11.9482 14.636 13.636C12.9482 15.3239 12 17.6131 12 20H9L12.96 24.03L17 20H14C14 18.1435 14.7375 16.363 16.0503 15.0503C17.363 13.7375 19.1435 13 21 13C22.8565 13 24.637 13.7375 25.9497 15.0503C27.2625 16.363 28 18.1435 28 20C28 21.8565 27.2625 23.637 25.9497 24.9497C24.637 26.2625 22.8565 27 21 27C19.07 27 17.32 26.21 16.06 24.94L14.64 26.36C15.4716 27.2004 16.4623 27.8668 17.5543 28.32C18.6463 28.7733 19.8177 29.0045 21 29C23.3869 29 25.6761 28.0518 27.364 26.364C29.0518 24.6761 30 22.3869 30 20C30 17.6131 29.0518 15.3239 27.364 13.636C25.6761 11.9482 23.3869 11 21 11Z" fill="#49454F"/>
</g>
<defs>
<clipPath id="clip0_165_57946">
<rect width="40" height="40" rx="20" fill="white"/>
</clipPath>
</defs>
</svg>
